<?xml version="1.0" encoding="utf-8"?>
<!-- Generator: Adobe Illustrator 20.0.0, SVG Export Plug-In . SVG Version: 6.00 Build 0)  -->
<svg version="1.1" id="Layer_1" xmlns="http://www.w3.org/2000/svg" xmlns:xlink="http://www.w3.org/1999/xlink" x="0px" y="0px"
	 viewBox="0 0 512 512" enable-background="new 0 0 512 512" xml:space="preserve">
<g>
	<path fill="none" stroke="#000000" stroke-width="12" stroke-linecap="round" stroke-linejoin="round" stroke-miterlimit="10" d="
		M117.2,111c0-11.7,0-43.3,0-55c0-23,13.4-40.2,34.6-44.5c3.6-0.7,7.3-0.8,10.9-0.8c62.3,0,124.7-0.1,187,0c26.8,0,45,18,45,44.8
		c0,87.2,0,104.3,0,191.5"/>
	<path fill="none" stroke="#000000" stroke-width="12" stroke-linecap="round" stroke-linejoin="round" stroke-miterlimit="10" d="
		M394.8,267c0,0.3,0,0,0,0.3"/>
	<path fill="none" stroke="#000000" stroke-width="12" stroke-linecap="round" stroke-linejoin="round" stroke-miterlimit="10" d="
		M394.8,286.3c0,33.4,0,136.8,0,170.1c0,26.7-18.2,44.7-45,44.8c-62.5,0-125,0-187.5,0c-27.1,0-45-18.1-45-45.2
		c0-66.7,0-133.3,0-200c0-40,0-79,0-119"/>
	<path d="M276.7,58.1h-39.5c-2.8,0-4.1-2.3-4.1-5.1l0,0c0-2.8,1.3-5.1,4.1-5.1h39.5c2.8,0,5.1,2.3,5.1,5.1l0,0
		C281.8,55.8,279.5,58.1,276.7,58.1z"/>
</g>
<path fill="none" stroke="#000000" stroke-width="10" stroke-miterlimit="10" d="M265.2,469.3h-18.5c-6.6,0-12-5.4-12-12v-18.5
	c0-6.6,5.4-12,12-12h18.5c6.6,0,12,5.4,12,12v18.5C277.2,463.9,271.8,469.3,265.2,469.3z"/>
</svg>
