<?xml version="1.0" ?><svg id="Layer_1" style="enable-background:new 0 0 512 512;" version="1.1" viewBox="0 0 512 512" xml:space="preserve" xmlns="http://www.w3.org/2000/svg" xmlns:xlink="http://www.w3.org/1999/xlink"><style type="text/css">
	.st0{fill:none;stroke:#ffffff;stroke-width:14;stroke-linecap:round;stroke-linejoin:round;stroke-miterlimit:10;}
	.st1{fill:#ffffff;}
</style><g><path class="st0" d="M245,361.3c-1.6,0-3,0-4.5,0c-42.4,0-84.8-0.3-127.2,0.1c-27.6,0.3-46.7-19.6-49.4-40.5   c-0.1-0.6-0.4-1.1-0.6-1.7c0-48.1,0-96.2,0-144.4 M63.3,138.8c0-4.8,0-9.7,0-14.5c2.3-6.4,3.7-13.4,7.2-19.1   c8.6-14.5,21.9-21.9,38.7-22.9c0.9-0.1,1.8-0.1,2.6-0.1c64.3,0,128.7,0,193,0 M335.6,82.2c1,0-1.3,0,1.7,0 M367.6,82.2   c10.8,0,21.6,0,32.5,0c21.5,0,39.4,12.5,46,32.3c1.7,5,2.5,10.5,2.6,15.8c0.2,60.9,0.2,121.9,0.1,182.8c0,27.3-20.8,48.1-48.1,48.2   c-42.9,0.1-85.8,0-128.7,0c-1.5,0-3,0-4.8,0"/><path class="st1" d="M256,423.8L256,423.8c-3.3,0-6-2.7-6-6v-37c0-3.3,2.7-6,6-6l0,0c3.3,0,6,2.7,6,6v37C262,421.1,259.3,423.8,256,423.8z"/><path class="st1" d="M216,423.8L216,423.8c0-3.3,2.7-6,6-6h68c3.3,0,6,2.7,6,6l0,0c0,3.3-2.7,6-6,6h-68C218.7,429.8,216,427.1,216,423.8z"/></g></svg>
